<!-- SPDX-License-Identifier: AGPL-3.0-or-later -->
<!--
    Copyright (C) 2022, 2023 JWP Consulting GK

    This program is free software: you can redistribute it and/or modify
    it under the terms of the GNU Affero General Public License as published
    by the Free Software Foundation, either version 3 of the License, or
    (at your option) any later version.

    This program is distributed in the hope that it will be useful,
    but WITHOUT ANY WARRANTY; without even the implied warranty of
    MERCHANTABILITY or FITNESS FOR A PARTICULAR PURPOSE.  See the
    GNU Affero General Public License for more details.

    You should have received a copy of the GNU Affero General Public License
    along with this program.  If not, see <https://www.gnu.org/licenses/>.
-->
<svg width="171" height="36" viewBox="0 0 171 36" fill="none" xmlns="http://www.w3.org/2000/svg">
<path d="M30.0345 12.0922C30.8087 12.4498 30.8087 13.5502 30.0345 13.9078L25.9193 15.8085C25.2567 16.1146 24.5 15.6306 24.5 14.9007V11.0993C24.5 10.3694 25.2567 9.88539 25.9193 10.1915L30.0345 12.0922Z" fill="#1E40AF"/>
<circle cx="20.5" cy="12.5" r="7.5" fill="#1E40AF"/>
<path d="M16 31C17.5759 31 19.1363 30.6896 20.5922 30.0866C22.0481 29.4835 23.371 28.5996 24.4853 27.4853C25.5996 26.371 26.4835 25.0481 27.0866 23.5922C27.6896 22.1363 28 20.5759 28 19C28 17.4241 27.6896 15.8637 27.0866 14.4078C26.4835 12.9519 25.5996 11.629 24.4853 10.5147C23.371 9.40041 22.0481 8.5165 20.5922 7.91344C19.1363 7.31039 17.5759 7 16 7L16 19L16 31Z" fill="#1E40AF"/>
<path d="M15.2526 14.9658C15.8635 14.2786 17 14.7107 17 15.6302V30.0001C17 30.5524 16.5523 31.0001 16 31.0001H9L3.2268 31C2.36396 31 1.90617 29.9806 2.47941 29.3357L15.2526 14.9658Z" fill="#1E40AF"/>
<path d="M17 18H21V20H19C17.8954 20 17 19.1046 17 18Z" fill="#93C5FD"/>
<path d="M13 21H21V23H15C13.8954 23 13 22.1046 13 21Z" fill="#93C5FD"/>
<path d="M9 24H21V26H11C9.89543 26 9 25.1046 9 24Z" fill="#93C5FD"/>
<path fill-rule="evenodd" clip-rule="evenodd" d="M24.8827 11.9024C24.8076 11.9649 24.7058 12 24.5996 12C24.4934 12 24.3915 11.9649 24.3164 11.9024L22.9976 10.8047L21.6787 11.9024C21.6032 11.9631 21.502 11.9967 21.397 11.996C21.292 11.9952 21.1916 11.9601 21.1173 11.8983C21.043 11.8365 21.0009 11.7529 21 11.6655C20.9991 11.5781 21.0395 11.4939 21.1124 11.431L22.7144 10.0976C22.7895 10.0351 22.8914 10 22.9976 10C23.1038 10 23.2056 10.0351 23.2807 10.0976L24.8827 11.431C24.9578 11.4935 25 11.5783 25 11.6667C25 11.7551 24.9578 11.8399 24.8827 11.9024Z" fill="white"/>
<path d="M50.4805 20.3975H45.0459V16.9697H50.4805C51.3203 16.9697 52.0039 16.833 52.5312 16.5596C53.0586 16.2764 53.4443 15.8857 53.6885 15.3877C53.9326 14.8896 54.0547 14.3281 54.0547 13.7031C54.0547 13.0684 53.9326 12.4775 53.6885 11.9307C53.4443 11.3838 53.0586 10.9443 52.5312 10.6123C52.0039 10.2803 51.3203 10.1143 50.4805 10.1143H46.5693V28H42.1748V6.67188H50.4805C52.1504 6.67188 53.5811 6.97461 54.7725 7.58008C55.9736 8.17578 56.8916 9.00098 57.5264 10.0557C58.1611 11.1104 58.4785 12.3164 58.4785 13.6738C58.4785 15.0508 58.1611 16.2422 57.5264 17.248C56.8916 18.2539 55.9736 19.0303 54.7725 19.5771C53.5811 20.124 52.1504 20.3975 50.4805 20.3975ZM65.4658 15.6074V28H61.2471V12.1504H65.2168L65.4658 15.6074ZM70.2412 12.0479L70.168 15.959C69.9629 15.9297 69.7139 15.9053 69.4209 15.8857C69.1377 15.8564 68.8789 15.8418 68.6445 15.8418C68.0488 15.8418 67.5312 15.9199 67.0918 16.0762C66.6621 16.2227 66.3008 16.4424 66.0078 16.7354C65.7246 17.0283 65.5098 17.3848 65.3633 17.8047C65.2266 18.2246 65.1484 18.7031 65.1289 19.2402L64.2793 18.9766C64.2793 17.9512 64.3818 17.0088 64.5869 16.1494C64.792 15.2803 65.0898 14.5234 65.4805 13.8789C65.8809 13.2344 66.3691 12.7363 66.9453 12.3848C67.5215 12.0332 68.1807 11.8574 68.9229 11.8574C69.1572 11.8574 69.3965 11.877 69.6406 11.916C69.8848 11.9453 70.085 11.9893 70.2412 12.0479ZM71.1201 20.2363V19.9287C71.1201 18.7666 71.2861 17.6973 71.6182 16.7207C71.9502 15.7344 72.4336 14.8799 73.0684 14.1572C73.7031 13.4346 74.4844 12.873 75.4121 12.4727C76.3398 12.0625 77.4043 11.8574 78.6055 11.8574C79.8066 11.8574 80.876 12.0625 81.8135 12.4727C82.751 12.873 83.5371 13.4346 84.1719 14.1572C84.8164 14.8799 85.3047 15.7344 85.6367 16.7207C85.9688 17.6973 86.1348 18.7666 86.1348 19.9287V20.2363C86.1348 21.3887 85.9688 22.458 85.6367 23.4443C85.3047 24.4209 84.8164 25.2754 84.1719 26.0078C83.5371 26.7305 82.7559 27.292 81.8281 27.6924C80.9004 28.0928 79.8359 28.293 78.6348 28.293C77.4336 28.293 76.3643 28.0928 75.4268 27.6924C74.499 27.292 73.7129 26.7305 73.0684 26.0078C72.4336 25.2754 71.9502 24.4209 71.6182 23.4443C71.2861 22.458 71.1201 21.3887 71.1201 20.2363ZM75.3389 19.9287V20.2363C75.3389 20.9004 75.3975 21.5205 75.5146 22.0967C75.6318 22.6729 75.8174 23.1807 76.0713 23.6201C76.335 24.0498 76.6768 24.3867 77.0967 24.6309C77.5166 24.875 78.0293 24.9971 78.6348 24.9971C79.2207 24.9971 79.7236 24.875 80.1436 24.6309C80.5635 24.3867 80.9004 24.0498 81.1543 23.6201C81.4082 23.1807 81.5938 22.6729 81.7109 22.0967C81.8379 21.5205 81.9014 20.9004 81.9014 20.2363V19.9287C81.9014 19.2842 81.8379 18.6787 81.7109 18.1123C81.5938 17.5361 81.4033 17.0283 81.1396 16.5889C80.8857 16.1396 80.5488 15.7881 80.1289 15.5342C79.709 15.2803 79.2012 15.1533 78.6055 15.1533C78.0098 15.1533 77.502 15.2803 77.082 15.5342C76.6719 15.7881 76.335 16.1396 76.0713 16.5889C75.8174 17.0283 75.6318 17.5361 75.5146 18.1123C75.3975 18.6787 75.3389 19.2842 75.3389 19.9287ZM88.9619 12.1504H93.1953V28.9521C93.1953 30.124 92.9805 31.1152 92.5508 31.9258C92.1211 32.7363 91.501 33.3516 90.6904 33.7715C89.8799 34.1914 88.8984 34.4014 87.7461 34.4014C87.3848 34.4014 87.0332 34.3818 86.6914 34.3428C86.3398 34.3037 85.9785 34.2402 85.6074 34.1523L85.6221 30.915C85.8564 30.9541 86.0859 30.9834 86.3105 31.0029C86.5254 31.0322 86.7451 31.0469 86.9697 31.0469C87.4092 31.0469 87.7754 30.9736 88.0684 30.8271C88.3613 30.6807 88.5811 30.4512 88.7275 30.1387C88.8838 29.8359 88.9619 29.4404 88.9619 28.9521V12.1504ZM88.625 8.01953C88.625 7.4043 88.8398 6.89648 89.2695 6.49609C89.709 6.0957 90.2852 5.89551 90.998 5.89551C91.7207 5.89551 92.2969 6.0957 92.7266 6.49609C93.1562 6.89648 93.3711 7.4043 93.3711 8.01953C93.3711 8.63477 93.1562 9.14258 92.7266 9.54297C92.2969 9.94336 91.7207 10.1436 90.998 10.1436C90.2852 10.1436 89.709 9.94336 89.2695 9.54297C88.8398 9.14258 88.625 8.63477 88.625 8.01953ZM103.845 28.293C102.614 28.293 101.511 28.0977 100.534 27.707C99.5576 27.3066 98.7275 26.7549 98.0439 26.0518C97.3701 25.3486 96.8525 24.5332 96.4912 23.6055C96.1299 22.668 95.9492 21.6719 95.9492 20.6172V20.0312C95.9492 18.8301 96.1201 17.7314 96.4619 16.7354C96.8037 15.7393 97.292 14.875 97.9268 14.1426C98.5713 13.4102 99.3525 12.8486 100.271 12.458C101.188 12.0576 102.224 11.8574 103.376 11.8574C104.499 11.8574 105.495 12.043 106.364 12.4141C107.233 12.7852 107.961 13.3125 108.547 13.9961C109.143 14.6797 109.592 15.5 109.895 16.457C110.197 17.4043 110.349 18.459 110.349 19.6211V21.3789H97.751V18.5664H106.203V18.2441C106.203 17.6582 106.096 17.1357 105.881 16.6768C105.676 16.208 105.363 15.8369 104.943 15.5635C104.523 15.29 103.986 15.1533 103.332 15.1533C102.775 15.1533 102.297 15.2754 101.896 15.5195C101.496 15.7637 101.169 16.1055 100.915 16.5449C100.671 16.9844 100.485 17.502 100.358 18.0977C100.241 18.6836 100.183 19.3281 100.183 20.0312V20.6172C100.183 21.252 100.271 21.8379 100.446 22.375C100.632 22.9121 100.891 23.376 101.223 23.7666C101.564 24.1572 101.975 24.46 102.453 24.6748C102.941 24.8896 103.493 24.9971 104.108 24.9971C104.87 24.9971 105.578 24.8506 106.232 24.5576C106.896 24.2549 107.468 23.8008 107.946 23.1953L109.997 25.4219C109.665 25.9004 109.211 26.3594 108.635 26.7988C108.068 27.2383 107.385 27.5996 106.584 27.8828C105.783 28.1562 104.87 28.293 103.845 28.293ZM119.299 24.9971C119.816 24.9971 120.275 24.8994 120.676 24.7041C121.076 24.499 121.389 24.2158 121.613 23.8545C121.848 23.4834 121.97 23.0488 121.979 22.5508H125.949C125.939 23.6641 125.642 24.6553 125.056 25.5244C124.47 26.3838 123.684 27.0625 122.697 27.5605C121.711 28.0488 120.607 28.293 119.387 28.293C118.156 28.293 117.082 28.0879 116.164 27.6777C115.256 27.2676 114.499 26.7012 113.894 25.9785C113.288 25.2461 112.834 24.3965 112.531 23.4297C112.229 22.4531 112.077 21.4082 112.077 20.2949V19.8701C112.077 18.7471 112.229 17.7021 112.531 16.7354C112.834 15.7588 113.288 14.9092 113.894 14.1865C114.499 13.4541 115.256 12.8828 116.164 12.4727C117.072 12.0625 118.137 11.8574 119.357 11.8574C120.656 11.8574 121.794 12.1064 122.771 12.6045C123.757 13.1025 124.528 13.8154 125.085 14.7432C125.651 15.6611 125.939 16.75 125.949 18.0098H121.979C121.97 17.4824 121.857 17.0039 121.643 16.5742C121.438 16.1445 121.135 15.8027 120.734 15.5488C120.344 15.2852 119.86 15.1533 119.284 15.1533C118.669 15.1533 118.166 15.2852 117.775 15.5488C117.385 15.8027 117.082 16.1543 116.867 16.6035C116.652 17.043 116.501 17.5459 116.413 18.1123C116.335 18.6689 116.296 19.2549 116.296 19.8701V20.2949C116.296 20.9102 116.335 21.501 116.413 22.0674C116.491 22.6338 116.638 23.1367 116.853 23.5762C117.077 24.0156 117.385 24.3623 117.775 24.6162C118.166 24.8701 118.674 24.9971 119.299 24.9971ZM136.159 12.1504V15.1387H126.931V12.1504H136.159ZM129.216 8.23926H133.435V23.2246C133.435 23.6836 133.493 24.0352 133.61 24.2793C133.737 24.5234 133.923 24.6943 134.167 24.792C134.411 24.8799 134.719 24.9238 135.09 24.9238C135.354 24.9238 135.588 24.9141 135.793 24.8945C136.008 24.8652 136.188 24.8359 136.335 24.8066L136.35 27.9121C135.988 28.0293 135.598 28.1221 135.178 28.1904C134.758 28.2588 134.294 28.293 133.786 28.293C132.858 28.293 132.048 28.1416 131.354 27.8389C130.671 27.5264 130.144 27.0283 129.772 26.3447C129.401 25.6611 129.216 24.7627 129.216 23.6494V8.23926ZM143.015 12.1504V28H138.781V12.1504H143.015ZM138.518 8.01953C138.518 7.4043 138.732 6.89648 139.162 6.49609C139.592 6.0957 140.168 5.89551 140.891 5.89551C141.604 5.89551 142.175 6.0957 142.604 6.49609C143.044 6.89648 143.264 7.4043 143.264 8.01953C143.264 8.63477 143.044 9.14258 142.604 9.54297C142.175 9.94336 141.604 10.1436 140.891 10.1436C140.168 10.1436 139.592 9.94336 139.162 9.54297C138.732 9.14258 138.518 8.63477 138.518 8.01953ZM151.877 28H147.629V10.7441C147.629 9.54297 147.863 8.53223 148.332 7.71191C148.811 6.88184 149.479 6.25684 150.339 5.83691C151.208 5.40723 152.238 5.19238 153.43 5.19238C153.82 5.19238 154.196 5.22168 154.558 5.28027C154.919 5.3291 155.271 5.39258 155.612 5.4707L155.568 8.64941C155.383 8.60059 155.188 8.56641 154.982 8.54688C154.777 8.52734 154.538 8.51758 154.265 8.51758C153.757 8.51758 153.322 8.60547 152.961 8.78125C152.609 8.94727 152.341 9.19629 152.155 9.52832C151.97 9.86035 151.877 10.2656 151.877 10.7441V28ZM155.041 12.1504V15.1387H145.271V12.1504H155.041ZM161.955 26.2129L166.159 12.1504H170.686L164.313 30.3877C164.177 30.7881 163.991 31.2178 163.757 31.6768C163.532 32.1357 163.225 32.5703 162.834 32.9805C162.453 33.4004 161.97 33.7422 161.384 34.0059C160.808 34.2695 160.1 34.4014 159.26 34.4014C158.859 34.4014 158.532 34.377 158.278 34.3281C158.024 34.2793 157.722 34.2109 157.37 34.123V31.0322C157.478 31.0322 157.59 31.0322 157.707 31.0322C157.824 31.042 157.937 31.0469 158.044 31.0469C158.601 31.0469 159.055 30.9834 159.406 30.8564C159.758 30.7295 160.041 30.5342 160.256 30.2705C160.471 30.0166 160.642 29.6846 160.769 29.2744L161.955 26.2129ZM160.197 12.1504L163.64 23.6348L164.24 28.1025L161.369 28.4102L155.671 12.1504H160.197Z" fill="#1E293B"/>
</svg>
