<?xml version="1.0" encoding="UTF-8" standalone="no"?>
<!DOCTYPE svg PUBLIC "-//W3C//DTD SVG 1.1//EN" "http://www.w3.org/Graphics/SVG/1.1/DTD/svg11.dtd">
<svg width="100%" height="100%" viewBox="0 0 50 50" version="1.1" xmlns="http://www.w3.org/2000/svg" xmlns:xlink="http://www.w3.org/1999/xlink" xml:space="preserve" xmlns:serif="http://www.serif.com/" style="fill-rule:evenodd;clip-rule:evenodd;stroke-linejoin:round;stroke-miterlimit:2;">
    <g transform="matrix(1,0,0,1,9.50619,6.4767)">
        <rect id="Artboard1" x="-9.506" y="-6.477" width="49.778" height="49.778" style="fill:none;"/>
        <g id="Artboard11" serif:id="Artboard1">
            <g transform="matrix(1.6632,0,0,1.6632,-12.7481,-12.3956)">
                <g transform="matrix(1,0,0,1,0.49381,0.523301)">
                    <path d="M30.035,12.092C30.809,12.45 30.809,13.55 30.035,13.908L25.919,15.809C25.257,16.115 24.5,15.631 24.5,14.901L24.5,11.099C24.5,10.369 25.257,9.885 25.919,10.192L30.035,12.092Z" style="fill:rgb(30,64,175);fill-rule:nonzero;"/>
                </g>
                <g transform="matrix(1,0,0,1,0.49381,0.523301)">
                    <circle cx="20.5" cy="12.5" r="7.5" style="fill:rgb(30,64,175);"/>
                </g>
                <g transform="matrix(1,0,0,1,0.49381,0.523301)">
                    <path d="M16,31C17.576,31 19.136,30.69 20.592,30.087C22.048,29.484 23.371,28.6 24.485,27.485C25.6,26.371 26.484,25.048 27.087,23.592C27.69,22.136 28,20.576 28,19C28,17.424 27.69,15.864 27.087,14.408C26.484,12.952 25.6,11.629 24.485,10.515C23.371,9.4 22.048,8.517 20.592,7.913C19.136,7.31 17.576,7 16,7L16,31Z" style="fill:rgb(30,64,175);fill-rule:nonzero;"/>
                </g>
                <g transform="matrix(1,0,0,1,0.49381,0.523301)">
                    <path d="M15.253,14.966C15.864,14.279 17,14.711 17,15.63L17,30C17,30.552 16.552,31 16,31L9,31L3.227,31C2.364,31 1.906,29.981 2.479,29.336L15.253,14.966Z" style="fill:rgb(30,64,175);fill-rule:nonzero;"/>
                </g>
                <g transform="matrix(1,0,0,1,0.49381,0.523301)">
                    <path d="M17,18L21,18L21,20L19,20C17.895,20 17,19.105 17,18Z" style="fill:rgb(147,197,253);fill-rule:nonzero;"/>
                </g>
                <g transform="matrix(1,0,0,1,0.49381,0.523301)">
                    <path d="M13,21L21,21L21,23L15,23C13.895,23 13,22.105 13,21Z" style="fill:rgb(147,197,253);fill-rule:nonzero;"/>
                </g>
                <g transform="matrix(1,0,0,1,0.49381,0.523301)">
                    <path d="M9,24L21,24L21,26L11,26C9.895,26 9,25.105 9,24Z" style="fill:rgb(147,197,253);fill-rule:nonzero;"/>
                </g>
                <g transform="matrix(1,0,0,1,0.49381,0.523301)">
                    <path d="M24.883,11.902C24.808,11.965 24.706,12 24.6,12C24.493,12 24.392,11.965 24.316,11.902L22.998,10.805L21.679,11.902C21.603,11.963 21.502,11.997 21.397,11.996C21.292,11.995 21.192,11.96 21.117,11.898C21.043,11.836 21.001,11.753 21,11.666C20.999,11.578 21.04,11.494 21.112,11.431L22.714,10.098C22.79,10.035 22.891,10 22.998,10C23.104,10 23.206,10.035 23.281,10.098L24.883,11.431C24.958,11.493 25,11.578 25,11.667C25,11.755 24.958,11.84 24.883,11.902Z" style="fill:white;"/>
                </g>
            </g>
        </g>
    </g>
</svg>
